<?xml version="1.0" standalone="no"?><!DOCTYPE svg PUBLIC "-//W3C//DTD SVG 1.1//EN" "http://www.w3.org/Graphics/SVG/1.1/DTD/svg11.dtd"><svg t="1782398783135" class="icon" viewBox="0 0 1024 1024" version="1.1" xmlns="http://www.w3.org/2000/svg" p-id="8021" xmlns:xlink="http://www.w3.org/1999/xlink" width="200" height="200"><path d="M933.1 161L831.4 77.6c-11.3-9.2-24.9-13.7-38.5-13.7-17.6 0-35.1 7.6-47.1 22.2L421.3 482c-6.9 8.5-11.5 18.7-13.1 29.6l-25 169.9c-1.8 12.1 2.8 23.9 12.3 31.7 6.2 5.1 13.8 7.8 21.8 7.8 3.9 0 7.9-0.7 11.7-2l161.7-57.9c10.5-3.7 19.6-10.2 26.5-18.7l324.5-395.9c10.4-12.5 15.2-28.4 13.6-44.5-1.8-16.1-9.6-30.7-22.2-41zM574 607.1c-0.6 0.7-1.3 1.2-2.2 1.5l-128.1 45.8 20.6-137 1.8-2.1 0.8 0.6 108.8 89.2-1.7 2z m324.5-395.9L611 562l-109.5-89.7L789 121.5c0.8-1.1 2.3-1.7 3.9-1.7 1.2 0 2.3 0.4 3 1l101.8 83.4c0.9 0.7 1.5 2 1.6 3.4 0.3 1.5-0.1 2.7-0.8 3.6zM243.8 833.8h526.1c15.4 0 27.9-12.5 27.9-28s-12.5-27.9-27.9-27.9H243.8c-15.4 0-27.9 12.5-27.9 27.9s12.5 28 27.9 28z" fill="#1A1A1A" p-id="8022"></path><path d="M896.2 364.6c-15.4 0-27.9 12.5-27.9 27.9v497.6c0 7.8-6.4 14.2-14.2 14.2H138.6c-7.8 0-14.2-6.4-14.2-14.2V174.6c0-7.8 6.4-14.2 14.2-14.2h426.1c15.4 0 27.9-12.5 27.9-28s-12.5-27.9-27.9-27.9H138.6c-38.6 0-70.1 31.4-70.1 70.1v715.5c0 38.6 31.4 70.1 70.1 70.1h715.5c38.6 0 70-31.4 70-70.1V392.5c0-15.4-12.5-27.9-27.9-27.9z" fill="#1A1A1A" p-id="8023"></path></svg>