<?xml version="1.0" standalone="no"?><!DOCTYPE svg PUBLIC "-//W3C//DTD SVG 1.1//EN" "http://www.w3.org/Graphics/SVG/1.1/DTD/svg11.dtd"><svg t="1782575965920" class="icon" viewBox="0 0 1024 1024" version="1.1" xmlns="http://www.w3.org/2000/svg" p-id="16540" xmlns:xlink="http://www.w3.org/1999/xlink" width="200" height="200"><path d="M665.152 72L864 261.824V952H168V72h497.152zM669.984 0H156A60 60 0 0 0 96 60v904A60 60 0 0 0 156 1024h720a60.032 60.032 0 0 0 60-60V256.672a60.064 60.064 0 0 0-18.56-43.392L711.36 16.608A60 60 0 0 0 669.984 0z" fill="#515151" p-id="16541" data-spm-anchor-id="a313x.search_index.0.i10.408e3a81vbOAzG" class="selected"></path><path d="M534.016 283.968H292a36 36 0 0 1 0-72h242.016a36 36 0 1 1 0 72z m365.984 11.008H688a36 36 0 0 1-36-36V46.976a36.032 36.032 0 0 1 72 0v176h176a36 36 0 0 1 0 72zM533.984 416H292a36 36 0 1 1 0-72h242.016a36 36 0 0 1 0 72z" fill="#515151" p-id="16542" data-spm-anchor-id="a313x.search_index.0.i11.408e3a81vbOAzG" class="selected"></path><path d="M120 544h582.016c13.312 0 20 6.656 20 20v276c0 13.344-6.688 20-20 20H120c-13.344 0-20-6.656-20-20v-276c0-13.344 6.656-20 20-20z" fill="#515151" p-id="16543" data-spm-anchor-id="a313x.search_index.0.i9.408e3a81vbOAzG" class="selected"></path><path d="M168.032 646.944l45.888 66.24-48.96 70.848h27.456l35.328-52.992L263.072 784h27.456l-49.344-70.848 46.272-66.24h-27.456l-32.256 48.384-32.256-48.384h-27.456zM304.96 646.944V784h96.352v-19.2h-74.112v-117.888H304.96zM466.944 644.256c-14.784 0-26.88 3.264-36.48 9.984-10.368 6.912-15.36 16.512-15.36 28.608s5.184 21.312 15.744 27.648c4.032 2.304 14.592 6.144 31.488 11.52 15.168 4.608 24 7.68 26.688 9.024 8.448 4.224 12.864 9.984 12.864 17.28 0 5.76-3.072 10.176-8.832 13.632-5.76 3.264-13.824 4.992-23.808 4.992-11.328 0-19.584-2.112-24.96-5.952-5.952-4.416-9.6-11.904-11.136-22.272h-22.272c0.96 17.472 7.296 30.144 18.816 38.208 9.408 6.528 22.656 9.792 39.552 9.792 17.472 0 31.104-3.648 40.704-10.56 9.6-7.104 14.4-16.896 14.4-29.184 0-12.672-5.952-22.464-17.856-29.568-5.376-3.072-17.28-7.68-35.904-13.44-12.672-4.032-20.544-6.912-23.424-8.448-6.528-3.456-9.6-8.256-9.6-14.016 0-6.528 2.688-11.328 8.448-14.208 4.608-2.496 11.136-3.648 19.776-3.648 9.984 0 17.664 1.728 22.656 5.568 4.992 3.648 8.64 9.792 10.56 18.24h22.272c-1.344-14.976-6.912-26.112-16.512-33.216-9.024-6.72-21.696-9.984-37.824-9.984zM534.208 646.944l45.888 66.24-48.96 70.848h27.456l35.328-52.992 35.328 52.992h27.456l-49.344-70.848 46.272-66.24h-27.456l-32.256 48.384-32.256-48.384h-27.456z" fill="#FFFFFF" p-id="16544"></path><path d="M168.032 646.944l45.888 66.24-48.96 70.848h27.456l35.328-52.992L263.072 784h27.456l-49.344-70.848 46.272-66.24h-27.456l-32.256 48.384-32.256-48.384h-27.456zM304.96 646.944V784h96.352v-19.2h-74.112v-117.888H304.96zM466.944 644.256c-14.784 0-26.88 3.264-36.48 9.984-10.368 6.912-15.36 16.512-15.36 28.608s5.184 21.312 15.744 27.648c4.032 2.304 14.592 6.144 31.488 11.52 15.168 4.608 24 7.68 26.688 9.024 8.448 4.224 12.864 9.984 12.864 17.28 0 5.76-3.072 10.176-8.832 13.632-5.76 3.264-13.824 4.992-23.808 4.992-11.328 0-19.584-2.112-24.96-5.952-5.952-4.416-9.6-11.904-11.136-22.272h-22.272c0.96 17.472 7.296 30.144 18.816 38.208 9.408 6.528 22.656 9.792 39.552 9.792 17.472 0 31.104-3.648 40.704-10.56 9.6-7.104 14.4-16.896 14.4-29.184 0-12.672-5.952-22.464-17.856-29.568-5.376-3.072-17.28-7.68-35.904-13.44-12.672-4.032-20.544-6.912-23.424-8.448-6.528-3.456-9.6-8.256-9.6-14.016 0-6.528 2.688-11.328 8.448-14.208 4.608-2.496 11.136-3.648 19.776-3.648 9.984 0 17.664 1.728 22.656 5.568 4.992 3.648 8.64 9.792 10.56 18.24h22.272c-1.344-14.976-6.912-26.112-16.512-33.216-9.024-6.72-21.696-9.984-37.824-9.984zM534.208 646.944l45.888 66.24-48.96 70.848h27.456l35.328-52.992 35.328 52.992h27.456l-49.344-70.848 46.272-66.24h-27.456l-32.256 48.384-32.256-48.384h-27.456z" fill="#FFFFFF" p-id="16545"></path></svg>